<mxfile host="app.diagrams.net" modified="2022-11-25T18:05:42.630Z" agent="5.0 (Windows NT 10.0; Win64; x64) AppleWebKit/537.36 (KHTML, like Gecko) Chrome/107.0.0.0 Safari/537.36" version="20.6.0" etag="UvZuyk9qUbXwrrJYOqWH" type="github">
  <diagram id="ldidZGyAPZVir1xh5pG7" name="Page-1">
    <mxGraphModel dx="351" dy="227" grid="1" gridSize="10" guides="1" tooltips="1" connect="1" arrows="1" fold="1" page="1" pageScale="1" pageWidth="850" pageHeight="1100" math="0" shadow="0">
      <root>
        <mxCell id="0" />
        <mxCell id="1" parent="0" />
        <mxCell id="S9HupeFHgvLmfnn3ni2o-6" value="" style="verticalLabelPosition=bottom;verticalAlign=top;html=1;shape=mxgraph.basic.frame;dx=10;whiteSpace=wrap;fontSize=14;fontColor=#000000;" vertex="1" parent="1">
          <mxGeometry x="273" y="160" width="67" height="40" as="geometry" />
        </mxCell>
        <mxCell id="S9HupeFHgvLmfnn3ni2o-7" value="Google" style="text;html=1;align=center;verticalAlign=middle;resizable=0;points=[];autosize=1;strokeColor=none;fillColor=none;" vertex="1" parent="1">
          <mxGeometry x="276.5" y="165" width="60" height="30" as="geometry" />
        </mxCell>
        <mxCell id="S9HupeFHgvLmfnn3ni2o-8" value="&lt;font face=&quot;Times New Roman&quot;&gt;Head&lt;br&gt;entity&lt;/font&gt;" style="text;html=1;align=center;verticalAlign=middle;resizable=0;points=[];autosize=1;strokeColor=none;fillColor=none;" vertex="1" parent="1">
          <mxGeometry x="281.5" y="125" width="50" height="40" as="geometry" />
        </mxCell>
        <mxCell id="S9HupeFHgvLmfnn3ni2o-12" value="in&lt;br&gt;org" style="edgeStyle=orthogonalEdgeStyle;rounded=0;orthogonalLoop=1;jettySize=auto;html=1;exitX=0;exitY=0.5;exitDx=0;exitDy=0;entryX=1;entryY=0.5;entryDx=0;entryDy=0;entryPerimeter=0;fontFamily=Helvetica;" edge="1" parent="1" source="S9HupeFHgvLmfnn3ni2o-10" target="S9HupeFHgvLmfnn3ni2o-6">
          <mxGeometry relative="1" as="geometry" />
        </mxCell>
        <mxCell id="S9HupeFHgvLmfnn3ni2o-10" value="&lt;font face=&quot;Helvetica&quot;&gt;job&lt;/font&gt;" style="ellipse;whiteSpace=wrap;html=1;fontFamily=Times New Roman;" vertex="1" parent="1">
          <mxGeometry x="385" y="160" width="40" height="40" as="geometry" />
        </mxCell>
        <mxCell id="S9HupeFHgvLmfnn3ni2o-14" value="has&lt;br&gt;job" style="edgeStyle=orthogonalEdgeStyle;rounded=0;orthogonalLoop=1;jettySize=auto;html=1;exitX=0;exitY=0.5;exitDx=0;exitDy=0;entryX=1;entryY=0.5;entryDx=0;entryDy=0;fontFamily=Helvetica;" edge="1" parent="1" source="S9HupeFHgvLmfnn3ni2o-13" target="S9HupeFHgvLmfnn3ni2o-10">
          <mxGeometry relative="1" as="geometry" />
        </mxCell>
        <mxCell id="S9HupeFHgvLmfnn3ni2o-13" value="person" style="rounded=0;whiteSpace=wrap;html=1;fontFamily=Helvetica;" vertex="1" parent="1">
          <mxGeometry x="470" y="160" width="50" height="40" as="geometry" />
        </mxCell>
        <mxCell id="S9HupeFHgvLmfnn3ni2o-15" value="&lt;font face=&quot;Times New Roman&quot;&gt;Tail&lt;br&gt;entity&lt;/font&gt;" style="text;html=1;align=center;verticalAlign=middle;resizable=0;points=[];autosize=1;strokeColor=none;fillColor=none;" vertex="1" parent="1">
          <mxGeometry x="470" y="125" width="50" height="40" as="geometry" />
        </mxCell>
      </root>
    </mxGraphModel>
  </diagram>
</mxfile>
